<svg xmlns="http://www.w3.org/2000/svg" viewBox="0 0 500 500"><g id="freepik--background-simple--inject-171"><path d="M472,238.11c-4.93,41.8-24,90.4-62.14,112.73-57.59,33.74-52.77,85.64-165.19,108.2a230.63,230.63,0,0,1-49.85,4.7,191,191,0,0,1-24.46-2c-71.45-10.44-119.53-60.1-137.17-120C9.94,262.85,56.29,211.24,87,180.14s53.23-128,163.57-151.06a224.31,224.31,0,0,1,51.23-4.86c39.26,1,82.08,13.85,111.71,40.76q3.33,3,6.49,6.28C461.2,113.53,478.7,181.12,472,238.11Z" style="fill:#FFED00"></path><path d="M472,238.11c-4.93,41.8-24,90.4-62.14,112.73-57.59,33.74-52.77,85.64-165.19,108.2a230.63,230.63,0,0,1-49.85,4.7,191,191,0,0,1-24.46-2c-71.45-10.44-119.53-60.1-137.17-120C9.94,262.85,56.29,211.24,87,180.14s53.23-128,163.57-151.06a224.31,224.31,0,0,1,51.23-4.86c39.26,1,82.08,13.85,111.71,40.76q3.33,3,6.49,6.28C461.2,113.53,478.7,181.12,472,238.11Z" style="fill:#fff;opacity:0.7000000000000001"></path></g><g id="freepik--Gers--inject-171"><path d="M267.55,267.06v-7.71l-7.7-.85a18,18,0,0,0-1.89-4.59l4.87-6.08-5.45-5.45-6.06,4.84a18.66,18.66,0,0,0-4.57-1.92l-.86-7.73h-7.71l-.86,7.7a18.32,18.32,0,0,0-4.59,1.88l-6.08-4.86-5.45,5.45L226,253.8a18.25,18.25,0,0,0-1.91,4.57l-7.74.86v7.71l7.7.86a18.13,18.13,0,0,0,1.89,4.59l-4.87,6.08,5.46,5.45,6.05-4.84a18.41,18.41,0,0,0,4.57,1.91l.87,7.74h7.7l.86-7.7a18.34,18.34,0,0,0,4.59-1.89l6.08,4.86,5.45-5.45-4.84-6.05a18.73,18.73,0,0,0,1.92-4.58ZM242,272.35a9.2,9.2,0,1,1,9.2-9.2A9.2,9.2,0,0,1,242,272.35Z" style="fill:#FFED00;stroke:#263238;stroke-linecap:round;stroke-linejoin:round"></path><path d="M297.85,251.59l-.86-5.11-5.19.29a12.44,12.44,0,0,0-1.76-2.83l2.55-4.56-4.22-3-3.47,3.88a11.78,11.78,0,0,0-3.24-.76l-1.42-5-5.11.86.29,5.19a12.1,12.1,0,0,0-2.83,1.76L268,239.72l-3,4.21,3.88,3.47a12.24,12.24,0,0,0-.77,3.25l-5,1.42.85,5.11,5.19-.29a12.44,12.44,0,0,0,1.76,2.83l-2.54,4.56,4.21,3,3.47-3.88a11.87,11.87,0,0,0,3.24.76l1.43,5,5.1-.86-.28-5.19a12.1,12.1,0,0,0,2.83-1.76l4.56,2.55,3-4.21-3.88-3.47a12.62,12.62,0,0,0,.76-3.25Zm-16.35,6.33a6.17,6.17,0,1,1,5.07-7.11A6.17,6.17,0,0,1,281.5,257.92Z" style="fill:#263238;stroke:#263238;stroke-miterlimit:10"></path></g><g id="freepik--Locator--inject-171"><path d="M377.58,176.27a14.21,14.21,0,0,0-14.21,14.21c0,7.85,14.21,24.92,14.21,24.92s14.21-17.07,14.21-24.92A14.21,14.21,0,0,0,377.58,176.27Zm0,22.14a7.52,7.52,0,1,1,7.51-7.52A7.51,7.51,0,0,1,377.58,198.41Z" style="fill:#263238"></path></g><g id="freepik--Chart--inject-171"><rect x="367.36" y="60.85" width="12.89" height="47.99" transform="translate(747.61 169.69) rotate(180)" style="fill:#FFED00;stroke:#263238;stroke-linecap:round;stroke-linejoin:round"></rect><rect x="350.17" y="71.59" width="12.89" height="37.25" transform="translate(713.23 180.44) rotate(180)" style="fill:#263238;stroke:#263238;stroke-miterlimit:10"></rect><rect x="332.98" y="80.19" width="12.89" height="28.65" transform="translate(678.86 189.03) rotate(180)" style="fill:#FFED00;stroke:#263238;stroke-linecap:round;stroke-linejoin:round"></rect><rect x="315.79" y="87.35" width="12.89" height="21.49" transform="translate(644.48 196.19) rotate(180)" style="fill:#263238;stroke:#263238;stroke-miterlimit:10"></rect><polygon points="321.82 84.18 320.57 82.53 333.75 72.5 340.28 74.68 351.07 63.06 357.42 64.99 368.93 51.8 373.81 54.95 378.87 51.37 380.07 53.07 373.86 57.46 369.31 54.52 358.11 67.37 351.71 65.42 340.89 77.07 334.13 74.82 321.82 84.18" style="fill:#263238"></polygon><polygon points="381.12 57.02 385.19 48.17 375.49 49.06 381.12 57.02" style="fill:#263238"></polygon></g><g id="freepik--Cloud--inject-171"><path d="M209,52.39a11.45,11.45,0,0,0-17.61-11.63,15.44,15.44,0,0,0-29.72,5.88c0,.19,0,.37,0,.56a10.06,10.06,0,0,0,1.37,19.63v.1h45.46A7.28,7.28,0,0,0,209,52.39Z" style="fill:#fff;stroke:#263238;stroke-linecap:round;stroke-linejoin:round"></path><polygon points="196.07 62.28 183.48 46.42 170.88 62.28 175.81 62.28 175.81 76.54 191.15 76.54 191.15 62.28 196.07 62.28" style="fill:#263238;stroke:#263238;stroke-linecap:round;stroke-linejoin:round"></polygon><polygon points="196.07 59.21 183.48 43.36 170.88 59.21 175.81 59.21 175.81 73.48 191.15 73.48 191.15 59.21 196.07 59.21" style="fill:#FFED00;stroke:#263238;stroke-linecap:round;stroke-linejoin:round"></polygon></g><g id="freepik--device-2--inject-171"><rect x="112.45" y="107.38" width="38.58" height="75.2" rx="2.34" transform="translate(52.53 -34.19) rotate(18.41)" style="fill:#FFED00;stroke:#263238;stroke-linecap:round;stroke-linejoin:round"></rect><path d="M159.23,123.46l2-5.85a2.34,2.34,0,0,0-1.49-3L127.53,104a2.33,2.33,0,0,0-3,1.48l-1.95,5.84Z" style="fill:#263238;stroke:#263238;stroke-linecap:round;stroke-linejoin:round"></path><path d="M104,167.11l-1.74,5.23a2.33,2.33,0,0,0,1.48,3L135.94,186a2.35,2.35,0,0,0,3-1.49l1.74-5.22Z" style="fill:#263238;stroke:#263238;stroke-linecap:round;stroke-linejoin:round"></path></g><g id="freepik--speech-bubble--inject-171"><path d="M118.78,198.84H61.43a7,7,0,0,0-7,7v32.3a7,7,0,0,0,7,7h39.86l7.11,12.19,5-12.19h5.41a7,7,0,0,0,7-7V205.8A7,7,0,0,0,118.78,198.84Z" style="fill:#263238;stroke:#263238;stroke-linecap:round;stroke-linejoin:round"></path><path d="M80.15,223.24a3.85,3.85,0,1,0-3.85,3.85A3.85,3.85,0,0,0,80.15,223.24Z" style="fill:#FFED00"></path><path d="M95.56,223.24a3.85,3.85,0,1,0-3.85,3.85A3.85,3.85,0,0,0,95.56,223.24Z" style="fill:#FFED00"></path><path d="M111,223.24a3.85,3.85,0,1,0-3.85,3.85A3.85,3.85,0,0,0,111,223.24Z" style="fill:#FFED00"></path></g><g id="freepik--device-1--inject-171"><polygon points="295.38 58.61 193.28 114.43 175.58 185.9 273.6 125.32 295.38 58.61" style="fill:#263238;stroke:#263238;stroke-linecap:round;stroke-linejoin:round"></polygon><polygon points="290.11 64.22 197 115.12 180.86 180.29 270.25 125.05 290.11 64.22" style="fill:#fff;stroke:#263238;stroke-linecap:round;stroke-linejoin:round"></polygon><polygon points="273.6 125.32 331.69 157.06 228.66 228.73 175.58 185.9 273.6 125.32" style="fill:#b0b0b0;stroke:#263238;stroke-linecap:round;stroke-linejoin:round"></polygon><polygon points="302.78 172.53 288.12 162.76 239.93 195.38 253.75 206.48 302.78 172.53" style="fill:#b0b0b0;stroke:#263238;stroke-linecap:round;stroke-linejoin:round"></polygon><polygon points="274.02 145.29 277.17 147.12 282.8 143.51 279.61 141.71 274.02 145.29" style="fill:#263238"></polygon><polygon points="223 192.27 220.22 190.2 214.46 193.89 217.19 195.99 223 192.27" style="fill:#263238"></polygon><polygon points="245.72 152.96 248.74 154.88 254.28 151.33 251.22 149.44 245.72 152.96" style="fill:#263238"></polygon><polygon points="269.74 142.8 272.89 144.63 278.47 141.06 275.27 139.26 269.74 142.8" style="fill:#263238"></polygon><polygon points="219.23 189.46 216.46 187.39 210.74 191.04 213.48 193.14 219.23 189.46" style="fill:#263238"></polygon><polygon points="252.3 148.75 255.37 150.63 260.9 147.09 257.79 145.23 252.3 148.75" style="fill:#263238"></polygon><polygon points="253.18 167.71 250.2 165.77 244.52 169.41 247.46 171.38 253.18 167.71" style="fill:#263238"></polygon><polygon points="266.76 159.01 263.7 157.12 258.03 160.76 261.05 162.67 266.76 159.01" style="fill:#263238"></polygon><polygon points="259.97 163.36 256.95 161.45 251.27 165.08 254.25 167.02 259.97 163.36" style="fill:#263238"></polygon><polygon points="285.58 146.96 282.38 145.16 278.29 147.77 281.44 149.6 285.58 146.96" style="fill:#263238"></polygon><polygon points="273.55 154.66 270.45 152.8 264.78 156.43 267.85 158.31 273.55 154.66" style="fill:#263238"></polygon><polygon points="280.35 150.31 277.2 148.48 271.54 152.1 274.64 153.96 280.35 150.31" style="fill:#263238"></polygon><polygon points="258.88 144.53 261.99 146.39 267.52 142.85 264.37 141.02 258.88 144.53" style="fill:#263238"></polygon><polygon points="205.01 188.11 202.28 186.02 196.67 189.61 199.37 191.73 205.01 188.11" style="fill:#263238"></polygon><polygon points="239.14 157.18 242.12 159.12 247.67 155.57 244.64 153.65 239.14 157.18" style="fill:#263238"></polygon><polygon points="208.73 190.96 205.99 188.86 200.33 192.49 203.03 194.61 208.73 190.96" style="fill:#263238"></polygon><polygon points="212.44 193.81 209.71 191.71 203.99 195.37 206.69 197.49 212.44 193.81" style="fill:#263238"></polygon><polygon points="199.61 182.5 202.34 184.6 207.93 181.02 205.15 178.95 199.61 182.5" style="fill:#263238"></polygon><polygon points="193.01 186.73 195.71 188.85 201.3 185.27 198.57 183.17 193.01 186.73" style="fill:#263238"></polygon><polygon points="232.55 161.4 235.49 163.37 241.05 159.81 238.07 157.87 232.55 161.4" style="fill:#263238"></polygon><polygon points="225.97 165.62 228.86 167.61 234.43 164.05 231.49 162.08 225.97 165.62" style="fill:#263238"></polygon><polygon points="212.79 174.06 215.6 176.11 221.18 172.53 218.32 170.51 212.79 174.06" style="fill:#263238"></polygon><polygon points="219.38 169.84 222.23 171.86 227.8 168.29 224.91 166.3 219.38 169.84" style="fill:#263238"></polygon><polygon points="206.2 178.28 208.97 180.35 214.56 176.78 211.74 174.73 206.2 178.28" style="fill:#263238"></polygon><polygon points="263.1 147.06 266.21 148.91 271.79 145.34 268.64 143.51 263.1 147.06" style="fill:#263238"></polygon><polygon points="242.4 169.39 239.46 167.42 233.83 171.03 236.73 173.03 242.4 169.39" style="fill:#263238"></polygon><polygon points="249.14 165.07 246.16 163.13 240.53 166.74 243.47 168.71 249.14 165.07" style="fill:#263238"></polygon><polygon points="255.87 160.76 252.85 158.85 247.23 162.45 250.21 164.39 255.87 160.76" style="fill:#263238"></polygon><polygon points="246.39 172.06 243.45 170.09 237.76 173.74 240.66 175.73 246.39 172.06" style="fill:#263238"></polygon><polygon points="262.6 156.45 259.54 154.56 253.93 158.16 256.95 160.07 262.6 156.45" style="fill:#263238"></polygon><polygon points="260.62 153.87 263.69 155.75 269.34 152.14 266.23 150.28 260.62 153.87" style="fill:#263238"></polygon><polygon points="220.43 179.61 223.25 181.66 228.93 178.02 226.08 176 220.43 179.61" style="fill:#263238"></polygon><polygon points="249.82 155.56 252.84 157.47 258.44 153.89 255.38 152 249.82 155.56" style="fill:#263238"></polygon><polygon points="185.9 182.61 181.7 185.2 186.81 189.33 191.02 186.63 185.9 182.61" style="fill:#263238"></polygon><polygon points="235.67 173.7 232.77 171.71 227.13 175.32 229.99 177.34 235.67 173.7" style="fill:#263238"></polygon><polygon points="276.07 147.82 272.92 145.99 267.32 149.58 270.43 151.44 276.07 147.82" style="fill:#263238"></polygon><polygon points="256.46 151.31 259.53 153.19 265.12 149.61 262.01 147.75 256.46 151.31" style="fill:#263238"></polygon><polygon points="226.02 185.11 223.21 183.06 217.5 186.72 220.27 188.79 226.02 185.11" style="fill:#263238"></polygon><polygon points="222.2 182.33 219.38 180.28 213.73 183.91 216.51 185.98 222.2 182.33" style="fill:#263238"></polygon><polygon points="232.81 180.76 229.95 178.74 224.25 182.39 227.07 184.44 232.81 180.76" style="fill:#263238"></polygon><polygon points="239.6 176.41 236.7 174.42 231.01 178.06 233.86 180.08 239.6 176.41" style="fill:#263238"></polygon><polygon points="215.46 186.65 212.69 184.57 207.03 188.2 209.77 190.29 215.46 186.65" style="fill:#263238"></polygon><polygon points="236.54 164.07 239.48 166.04 245.09 162.44 242.11 160.5 236.54 164.07" style="fill:#263238"></polygon><polygon points="229.9 168.32 232.79 170.32 238.41 166.72 235.48 164.75 229.9 168.32" style="fill:#263238"></polygon><polygon points="243.18 159.81 246.16 161.76 251.77 158.16 248.75 156.25 243.18 159.81" style="fill:#263238"></polygon><polygon points="223.25 172.58 226.11 174.6 231.74 171 228.84 169 223.25 172.58" style="fill:#263238"></polygon><polygon points="216.61 176.84 219.43 178.88 225.06 175.28 222.2 173.25 216.61 176.84" style="fill:#263238"></polygon><polygon points="209.97 181.09 212.74 183.16 218.38 179.55 215.56 177.51 209.97 181.09" style="fill:#263238"></polygon><polygon points="203.32 185.35 206.05 187.45 211.7 183.83 208.92 181.76 203.32 185.35" style="fill:#263238"></polygon><polygon points="216.15 196.65 213.42 194.56 207.65 198.25 210.34 200.37 216.15 196.65" style="fill:#263238"></polygon><polygon points="209.31 201.04 206.62 198.91 202.2 201.75 204.85 203.89 209.31 201.04" style="fill:#263238"></polygon><polygon points="221.88 201.04 217.13 197.4 211.31 201.13 216.07 204.88 221.88 201.04" style="fill:#263238"></polygon><polygon points="223.99 193.01 218.17 196.74 222.9 200.36 228.7 196.53 223.99 193.01" style="fill:#263238"></polygon><polygon points="237.71 184.22 231.9 187.94 236.55 191.33 242.34 187.5 237.71 184.22" style="fill:#263238"></polygon><polygon points="205.21 177.54 210.73 174 205.72 170.36 200.17 173.78 205.21 177.54" style="fill:#263238"></polygon><polygon points="205.65 198.16 202.96 196.03 198.59 198.83 201.25 200.98 205.65 198.16" style="fill:#263238"></polygon><polygon points="192.05 185.97 197.59 182.42 192.51 178.52 186.95 181.96 192.05 185.97" style="fill:#263238"></polygon><polygon points="198.63 181.75 204.16 178.21 199.11 174.44 193.56 177.87 198.63 181.75" style="fill:#263238"></polygon><polygon points="194.68 189.51 191.98 187.39 187.76 190.09 190.42 192.24 194.68 189.51" style="fill:#263238"></polygon><polygon points="198.33 192.39 195.64 190.27 191.37 193.01 194.03 195.15 198.33 192.39" style="fill:#263238"></polygon><polygon points="201.99 195.27 199.3 193.15 194.98 195.92 197.64 198.06 201.99 195.27" style="fill:#263238"></polygon><polygon points="230.85 188.62 225.03 192.34 229.73 195.85 235.52 192.01 230.85 188.62" style="fill:#263238"></polygon><polygon points="299.72 144.5 293.72 148.34 297.93 150.72 303.88 146.78 299.72 144.5" style="fill:#263238"></polygon><polygon points="292.62 149.05 286.85 152.75 291.11 155.22 296.84 151.44 292.62 149.05" style="fill:#263238"></polygon><polygon points="285.75 153.45 279.97 157.15 284.3 159.74 290.04 155.94 285.75 153.45" style="fill:#263238"></polygon><polygon points="210.28 201.79 205.81 204.66 210.58 208.51 215.05 205.56 210.28 201.79" style="fill:#263238"></polygon><polygon points="270.9 135.46 276.55 131.84 272.04 129.37 266.35 132.89 270.9 135.46" style="fill:#263238"></polygon><polygon points="278.88 157.85 273.1 161.55 277.48 164.25 283.23 160.44 278.88 157.85" style="fill:#263238"></polygon><polygon points="276.42 164.95 272.02 162.24 238.76 183.55 243.38 186.81 276.42 164.95" style="fill:#263238"></polygon><polygon points="284.62 152.79 281.47 150.96 275.76 154.63 278.86 156.48 284.62 152.79" style="fill:#263238"></polygon><polygon points="270.92 161.57 267.86 159.68 262.13 163.35 265.15 165.27 270.92 161.57" style="fill:#263238"></polygon><polygon points="229.84 187.88 227.03 185.84 221.26 189.53 224.04 191.6 229.84 187.88" style="fill:#263238"></polygon><polygon points="277.77 157.18 274.67 155.32 268.94 158.99 272.01 160.88 277.77 157.18" style="fill:#263238"></polygon><polygon points="283.49 144.56 286.68 146.36 294.16 141.46 290.92 139.69 283.49 144.56" style="fill:#263238"></polygon><polygon points="298.56 143.87 295.32 142.09 283.04 150.13 286.23 151.93 298.56 143.87" style="fill:#263238"></polygon><polygon points="280.71 141 283.91 142.8 289.76 139.05 286.52 137.28 280.71 141" style="fill:#263238"></polygon><polygon points="236.69 183.5 233.83 181.48 228.07 185.17 230.89 187.21 236.69 183.5" style="fill:#263238"></polygon><polygon points="243.53 179.12 240.63 177.12 234.88 180.81 237.74 182.83 243.53 179.12" style="fill:#263238"></polygon><polygon points="264.07 165.96 261.05 164.04 255.32 167.72 258.3 169.66 264.07 165.96" style="fill:#263238"></polygon><polygon points="257.23 170.34 254.25 168.4 248.5 172.08 251.44 174.05 257.23 170.34" style="fill:#263238"></polygon><polygon points="250.38 174.73 247.44 172.76 241.69 176.44 244.59 178.44 250.38 174.73" style="fill:#263238"></polygon><polygon points="251.21 148.07 256.68 144.57 251.99 141.76 246.48 145.16 251.21 148.07" style="fill:#263238"></polygon><polygon points="238.07 156.49 243.56 152.97 238.77 149.93 233.25 153.34 238.07 156.49" style="fill:#263238"></polygon><polygon points="231.5 160.7 237 157.17 232.16 154.02 226.63 157.44 231.5 160.7" style="fill:#263238"></polygon><polygon points="244.64 152.28 250.13 148.77 245.38 145.85 239.86 149.25 244.64 152.28" style="fill:#263238"></polygon><polygon points="218.36 169.12 223.87 165.59 218.94 162.19 213.4 165.61 218.36 169.12" style="fill:#263238"></polygon><polygon points="224.93 164.91 230.44 161.38 225.55 158.1 220.01 161.52 224.93 164.91" style="fill:#263238"></polygon><polygon points="276.38 138.55 279.57 140.35 285.36 136.65 282.11 134.88 276.38 138.55" style="fill:#263238"></polygon><polygon points="272.04 136.1 275.24 137.91 280.95 134.24 277.71 132.47 272.04 136.1" style="fill:#263238"></polygon><polygon points="265.46 140.32 268.62 142.15 274.13 138.61 270.94 136.81 265.46 140.32" style="fill:#263238"></polygon><polygon points="257.77 143.87 263.24 140.37 258.61 137.67 253.1 141.07 257.77 143.87" style="fill:#263238"></polygon><polygon points="259.72 136.98 264.34 139.66 269.8 136.17 265.22 133.58 259.72 136.98" style="fill:#263238"></polygon><polygon points="211.78 173.33 217.3 169.79 212.33 166.27 206.79 169.7 211.78 173.33" style="fill:#263238"></polygon><polyline points="197.28 207.57 171.41 224.02 171.41 233.9" style="fill:none;stroke:#263238;stroke-linecap:round;stroke-linejoin:round"></polyline><line x1="162.01" y1="237.66" x2="181.76" y2="237.66" style="fill:none;stroke:#263238;stroke-linecap:round;stroke-linejoin:round"></line><line x1="162.01" y1="240.95" x2="181.76" y2="240.95" style="fill:none;stroke:#263238;stroke-linecap:round;stroke-linejoin:round"></line><line x1="162.01" y1="244.24" x2="181.76" y2="244.24" style="fill:none;stroke:#263238;stroke-linecap:round;stroke-linejoin:round"></line><line x1="162.01" y1="247.54" x2="181.76" y2="247.54" style="fill:none;stroke:#263238;stroke-linecap:round;stroke-linejoin:round"></line><line x1="257" y1="30.76" x2="276.75" y2="30.76" style="fill:none;stroke:#263238;stroke-linecap:round;stroke-linejoin:round"></line><line x1="257" y1="34.05" x2="276.75" y2="34.05" style="fill:none;stroke:#263238;stroke-linecap:round;stroke-linejoin:round"></line><line x1="257" y1="37.34" x2="276.75" y2="37.34" style="fill:none;stroke:#263238;stroke-linecap:round;stroke-linejoin:round"></line><line x1="257" y1="40.63" x2="276.75" y2="40.63" style="fill:none;stroke:#263238;stroke-linecap:round;stroke-linejoin:round"></line><line x1="267.34" y1="84.36" x2="267.34" y2="45.8" style="fill:none;stroke:#263238;stroke-linecap:round;stroke-linejoin:round"></line><line x1="352.93" y1="129.51" x2="372.68" y2="129.51" style="fill:none;stroke:#263238;stroke-linecap:round;stroke-linejoin:round"></line><line x1="352.93" y1="132.8" x2="372.68" y2="132.8" style="fill:none;stroke:#263238;stroke-linecap:round;stroke-linejoin:round"></line><line x1="352.93" y1="136.09" x2="372.68" y2="136.09" style="fill:none;stroke:#263238;stroke-linecap:round;stroke-linejoin:round"></line><line x1="352.93" y1="139.38" x2="372.68" y2="139.38" style="fill:none;stroke:#263238;stroke-linecap:round;stroke-linejoin:round"></line><polyline points="320.01 150.2 336.47 137.97 347.76 137.97" style="fill:none;stroke:#263238;stroke-linecap:round;stroke-linejoin:round"></polyline></g><g id="freepik--character-2--inject-171"><rect x="294.79" y="281.74" width="175.49" height="167.66" rx="7.56" transform="translate(24.83 -24.33) rotate(3.76)" style="fill:#263238;stroke:#263238;stroke-linecap:round;stroke-linejoin:round"></rect><rect x="290.55" y="274.67" width="175.49" height="167.66" rx="7.56" transform="translate(24.35 -24.06) rotate(3.76)" style="fill:#fff;stroke:#263238;stroke-linecap:round;stroke-linejoin:round"></rect><path d="M470.45,294.4l.41-6.25a7.56,7.56,0,0,0-7.05-8l-160-10.53a7.57,7.57,0,0,0-8,7.05l-.41,6.24Z" style="fill:#fff;stroke:#263238;stroke-linecap:round;stroke-linejoin:round"></path><path d="M441.88,286.52a2.3,2.3,0,1,0-2.44,2.14A2.29,2.29,0,0,0,441.88,286.52Z" style="fill:#fff;stroke:#263238;stroke-linecap:round;stroke-linejoin:round"></path><path d="M450.62,287.09a2.3,2.3,0,1,0-2.45,2.15A2.31,2.31,0,0,0,450.62,287.09Z" style="fill:#fff;stroke:#263238;stroke-linecap:round;stroke-linejoin:round"></path><path d="M459.35,287.67a2.31,2.31,0,1,0-2.45,2.14A2.31,2.31,0,0,0,459.35,287.67Z" style="fill:#fff;stroke:#263238;stroke-linecap:round;stroke-linejoin:round"></path><path d="M376,241.84l-1.83.51c-6.05,1.78-25.15,8.17-27.55,18.72-2.86,12.57,9.49,23.23,9.49,23.23s5.19,18,2.67,25.4-13.92,8.94-12.43,21.5,13.8,23.81,47.37,24.57,43.18-.07,46.92-23.31c3-18.74-12.81-32.42-16.27-46s2.31-21.88-10.38-36.05S376,241.84,376,241.84Z" style="fill:#263238;stroke:#263238;stroke-linecap:round;stroke-linejoin:round"></path><path d="M373.69,259.8s-16.09,7.16-16.54,9.87-7.18,21.71-5.68,32.22,17,11.8,17,11.8-.47,7.09-8.46,12S336,337.57,336,337.57s14.31,12.32,44.76,11.59,29.16-7,29.16-7a92.35,92.35,0,0,1-15.83-13.37c-6.9-7.57-9.2-18.41-8-23.53s.83-8.44-3.6-20.23S373.69,259.8,373.69,259.8Z" style="fill:#fff;stroke:#263238;stroke-linecap:round;stroke-linejoin:round"></path><path d="M366.59,276a11.74,11.74,0,0,1-2.68,7.49c-3,3.91-7.16,4.74-5.6,5.94s6.19,1.77,6.19,1.77" style="fill:none;stroke:#263238;stroke-linecap:round;stroke-linejoin:round"></path><path d="M360.44,294.53s5.5,3.93,12.44-1.64" style="fill:none;stroke:#263238;stroke-linecap:round;stroke-linejoin:round"></path><path d="M357.91,275.05s3.14-4.65,7.57-1.32" style="fill:none;stroke:#263238;stroke-linecap:round;stroke-linejoin:round"></path><path d="M371.31,274.31s4.91-.89,7.68,3.14" style="fill:none;stroke:#263238;stroke-linecap:round;stroke-linejoin:round"></path><path d="M362.11,278.76c-.08,1.23-.68,2.18-1.35,2.14s-1.14-1.07-1.06-2.29.68-2.18,1.35-2.14S362.19,277.54,362.11,278.76Z" style="fill:#263238"></path><ellipse cx="374.51" cy="281" rx="2.22" ry="1.21" transform="translate(69.53 636.24) rotate(-86.24)" style="fill:#263238"></ellipse><path d="M368.5,313.69l9.74-.29s-.31,1.6-4.72,4.14a78.55,78.55,0,0,1-7.74,3.94S368.25,317.23,368.5,313.69Z" style="fill:#263238;stroke:#263238;stroke-miterlimit:10"></path><polygon points="307.97 437.67 328.84 352.56 351.4 360.72 334.63 439.57 307.97 437.67" style="fill:#fff;stroke:#263238;stroke-linecap:round;stroke-linejoin:round"></polygon><path d="M328.84,352.56,316.93,400c4,2.49,11.75,6,24.52,6.29H342l9.37-45.54Z" style="fill:#FFED00;stroke:#263238;stroke-linecap:round;stroke-linejoin:round"></path><path d="M329.4,439.08l7.72-38.95a70.38,70.38,0,0,1-6.55-14.63c-2.28-7.66,4.37-28.37,4.37-28.37a295.23,295.23,0,0,0,36.5,7.69c20.67,3,40.78-2.33,40.78-2.33l-13.28,45.32,4.3,36.35Z" style="fill:#FFED00;stroke:#263238;stroke-linecap:round;stroke-linejoin:round"></path><polygon points="418.04 445.04 408.77 410.69 432.85 404.2 440.13 446.45 418.04 445.04" style="fill:#fff;stroke:#263238;stroke-linecap:round;stroke-linejoin:round"></polygon><path d="M399.1,375.82l9.67,34.87s.93,2.84,10,.38a38.05,38.05,0,0,0,14.08-6.87L419,357.09a14.44,14.44,0,0,0-11-1.83c-6.23,1.54-8,3.64-8,3.64" style="fill:#FFED00;stroke:#263238;stroke-linecap:round;stroke-linejoin:round"></path><path d="M333.39,334.21s15,8.23,39,11.47,40.74-5.94,42.15-6.13S427.2,359,427.2,359,398.93,370,374,368.6c-26.46-1.44-53.38-13.53-53.38-13.53Z" style="fill:#FFED00;stroke:#263238;stroke-linecap:round;stroke-linejoin:round"></path></g><g id="freepik--character-1--inject-171"><rect x="35.46" y="288.04" width="175.49" height="167.66" rx="7.56" transform="translate(-53.55 22.27) rotate(-8.49)" style="fill:#263238;stroke:#263238;stroke-linecap:round;stroke-linejoin:round"></rect><rect x="39.7" y="282.38" width="175.49" height="167.66" rx="7.56" transform="translate(-52.67 22.83) rotate(-8.49)" style="fill:#fff;stroke:#263238;stroke-linecap:round;stroke-linejoin:round"></rect><path d="M203.9,284l-.93-6.19a7.56,7.56,0,0,0-8.59-6.36L35.76,295.14a7.56,7.56,0,0,0-6.36,8.59l.93,6.19Z" style="fill:#fff;stroke:#263238;stroke-linecap:round;stroke-linejoin:round"></path><path d="M174.31,282.38a2.3,2.3,0,1,0-1.94,2.61A2.3,2.3,0,0,0,174.31,282.38Z" style="fill:#fff;stroke:#263238;stroke-linecap:round;stroke-linejoin:round"></path><path d="M183,281.08A2.31,2.31,0,1,0,181,283.7,2.3,2.3,0,0,0,183,281.08Z" style="fill:#fff;stroke:#263238;stroke-linecap:round;stroke-linejoin:round"></path><path d="M191.62,279.79a2.3,2.3,0,1,0-1.93,2.62A2.3,2.3,0,0,0,191.62,279.79Z" style="fill:#fff;stroke:#263238;stroke-linecap:round;stroke-linejoin:round"></path><path d="M163.53,397.65,177,343s-5.37-14.08-5-16.49,2.52-7.46,2.45-9.08-3.87-6.5-1.92-8.06,3.83.15,5.29,2.66.9,4.76.83,6.77,0,3.81,0,3.81,8-11,11-14,6.06-8,7.51-8,1.88.44,1.44,2.32-5.39,7.7-5.39,7.7L190,316.93a53.2,53.2,0,0,1,5.1,7.41c2.23,4,3.41,5.84,1.7,9S187.4,346,187.4,346s1.24,48.46.57,51.28-3.79,14.72-9.84,20.34c-2.06,1.92-8.68,1.48-11.68.84a41.18,41.18,0,0,1-6.89-2.42l-3.38-12.93Z" style="fill:#fff;stroke:#263238;stroke-linecap:round;stroke-linejoin:round"></path><path d="M190,316.93s-8.82,6.58-7.87,8.08A7.07,7.07,0,0,0,185,327.3s-.9,2.68.44,4.08a4.65,4.65,0,0,0,2.69,1.08s-2.63,1.84.78,2.79,9.05-1.36,10.29-2.81-.31-4.49-.31-4.49a11.66,11.66,0,0,0-.56-3.73,10.87,10.87,0,0,0-1.72-3s-.32-3.4-2-4.61S190,316.93,190,316.93Z" style="fill:#fff;stroke:#263238;stroke-linecap:round;stroke-linejoin:round"></path><line x1="184.97" y1="327.3" x2="196.58" y2="321.21" style="fill:#fff;stroke:#263238;stroke-linecap:round;stroke-linejoin:round"></line><line x1="188.1" y1="332.46" x2="198.86" y2="327.95" style="fill:#fff;stroke:#263238;stroke-linecap:round;stroke-linejoin:round"></line><path d="M137,347.71s5,1.79,8.71,8.5,21.07,40.23,21.07,40.23l-12.9,7.19-17.39-52L131.32,346S135.79,346.8,137,347.71Z" style="fill:#FFED00;stroke:#263238;stroke-linecap:round;stroke-linejoin:round"></path><path d="M74.59,353.33s-16.65,18.14-16.77,23,23.8,81.27,23.8,81.27l91.6-13.68S144.29,356.87,139,350s-12.87-8-22.83-8a129.05,129.05,0,0,0-19.37,1.75S81.28,346.64,74.59,353.33Z" style="fill:#FFED00;stroke:#263238;stroke-linecap:round;stroke-linejoin:round"></path><path d="M81,339s-6,2-7.25,4.78-1.07,13.82-1.07,13.82,12,13.58,17.9,17,10.55,5.82,10.55,5.82,4.1-18.26,4.81-19.22,20.38,4.93,20.38,4.93-1.23-6.36-9.34-16.82S88.25,334.21,81,339Z" style="fill:#FFED00;stroke:#263238;stroke-linecap:round;stroke-linejoin:round"></path><path d="M109.34,286.31s4.37,14.82,7.59,20.61,4,15.27-.14,21.38S104.42,336,104.42,336a87.38,87.38,0,0,0,2.08,8.7c1.09,3.36,2.94,5.24,3.65,12.58s.06,11,.06,11-8.09-5.65-15.35-9.66-13.11-11.75-13.11-11.75-8.74-20.44-12-25.44a73,73,0,0,1-5-8.65c-.28-.55-9.82-5.39-3.43-21.63S89,274.46,96.76,276.82,109.34,286.31,109.34,286.31Z" style="fill:#fff;stroke:#263238;stroke-linecap:round;stroke-linejoin:round"></path><path d="M73,273.71s-3.72-3.95-10-1.63S50.87,287,56.21,299.14,67.93,316,67.93,316s8,2.52,11.07-.67-7-8.95-4.24-11.32,13.2-6.09,9.34-9.62S74,292.17,79.67,287s11.64-4.67,15.3-2.48,10.31,8.65,20.21,1.49,2.13-14.62-2.46-16.48a17.65,17.65,0,0,0-8.42-1.29s-8.76-11.42-18.54-11.33S72.63,270,73,273.71Z" style="fill:#263238;stroke:#263238;stroke-linecap:round;stroke-linejoin:round"></path><path d="M103.52,293.25s1.7,8.76,4.87,11.61,8.36,4.83,6.48,6.68-6.58,3.14-6.58,3.14" style="fill:none;stroke:#263238;stroke-linecap:round;stroke-linejoin:round"></path><path d="M110,321.08a10.86,10.86,0,0,1-11.82-.4" style="fill:none;stroke:#263238;stroke-linecap:round;stroke-linejoin:round"></path><path d="M100.36,321.93s1.46,5.86,4,5.68,3.15-5.17,3.15-5.17S102.51,323.18,100.36,321.93Z" style="fill:#263238;stroke:#263238;stroke-linecap:round;stroke-linejoin:round"></path><path d="M91.24,300.18s.44-3.6,5-4.67" style="fill:none;stroke:#263238;stroke-linecap:round;stroke-linejoin:round"></path><path d="M105.79,292.71s2.84-2,5.24-.39" style="fill:none;stroke:#263238;stroke-linecap:round;stroke-linejoin:round"></path><path d="M98.92,303.34c.5,1.35.3,2.68-.46,3s-1.77-.6-2.26-2-.29-2.68.46-3S98.43,302,98.92,303.34Z" style="fill:#263238"></path><path d="M111.24,298.22c.5,1.36.29,2.68-.46,3s-1.77-.6-2.27-2-.29-2.68.47-3S110.74,296.86,111.24,298.22Z" style="fill:#263238"></path><path d="M77.88,319.61s-8.77-8.88-12.23-4.45,3.62,12.39,7.9,13.52,5.57-3.38,5.57-3.38" style="fill:#fff;stroke:#263238;stroke-linecap:round;stroke-linejoin:round"></path><path d="M104.42,336a13.4,13.4,0,0,1-7.34.7c-4.22-.74-6.67-1.35-6.67-1.35a54.76,54.76,0,0,0,8.7,5.75c3.79,1.79,7.39,3.6,7.39,3.6Z" style="fill:#263238;stroke:#263238;stroke-linecap:round;stroke-linejoin:round"></path><rect x="150.13" y="386.72" width="42.61" height="57.81" rx="1.99" transform="translate(-21.77 9.66) rotate(-3.04)" style="fill:#263238;stroke:#263238;stroke-linecap:round;stroke-linejoin:round"></rect><path d="M71.08,440.29s6.3,20.94,7.84,21.21,68.46-23.58,68.46-23.58a29.81,29.81,0,0,0,6.06-1.91c2.49-1.2,13.62-10.55,13.62-10.55s4.72-.87,5.66-2.35,1.81-2.44.81-2.45S153,424.05,153.48,424s14.94-6.24,16.85-6.86,3.3-2.49,2.94-3.77-4.22.79-6,1.39S152,419.69,152,419.69s7.46-5.95,9.81-7,6.94-3.88,7.44-5a1.5,1.5,0,0,0-1.64-2.09c-1.12.34-16.79,8.35-18,9.37S140.16,431,140.16,431l-43.72,4.69-1.13-2Z" style="fill:#fff;stroke:#263238;stroke-linecap:round;stroke-linejoin:round"></path><line x1="165.92" y1="425.63" x2="152.87" y2="429.92" style="fill:none;stroke:#263238;stroke-linecap:round;stroke-linejoin:round"></line><path d="M68.82,360.45s-13.6,8-14.46,17.53S68,443.05,68,443.05l28.73-9.7L83.32,387" style="fill:#FFED00;stroke:#263238;stroke-linecap:round;stroke-linejoin:round"></path></g></svg>
