<svg xmlns="http://www.w3.org/2000/svg" viewBox="0 0 500 500"><g id="freepik--background-simple--inject-211"><path d="M482.77,243.25c-5.19,43.91-25.23,94.95-65.27,118.4C357,397.09,362.07,451.6,244,475.29a243,243,0,0,1-52.35,4.95,202.65,202.65,0,0,1-25.7-2.1c-75-11-125.54-63.12-144.06-126.09-24.38-82.81,24.3-137,56.57-169.68S134.36,47.93,250.25,23.72a235.45,235.45,0,0,1,53.8-5.11c41.24,1,86.21,14.55,117.33,42.81q3.51,3.18,6.83,6.59C471.46,112.41,489.84,183.4,482.77,243.25Z" style="fill:#FFED00"></path><path d="M482.77,243.25c-5.19,43.91-25.23,94.95-65.27,118.4C357,397.09,362.07,451.6,244,475.29a243,243,0,0,1-52.35,4.95,202.65,202.65,0,0,1-25.7-2.1c-75-11-125.54-63.12-144.06-126.09-24.38-82.81,24.3-137,56.57-169.68S134.36,47.93,250.25,23.72a235.45,235.45,0,0,1,53.8-5.11c41.24,1,86.21,14.55,117.33,42.81q3.51,3.18,6.83,6.59C471.46,112.41,489.84,183.4,482.77,243.25Z" style="fill:#fff;opacity:0.7000000000000001"></path></g><g id="freepik--Floor--inject-211"><line x1="472.87" y1="454.57" x2="485.34" y2="454.57" style="fill:none;stroke:#263238;stroke-miterlimit:10"></line><line x1="12.26" y1="454.57" x2="462.89" y2="454.57" style="fill:none;stroke:#263238;stroke-miterlimit:10"></line></g><g id="freepik--Plant--inject-211"><path d="M403.62,306.75s-2.45,6.76-7.68,7.68-14.43-9.21-8.6-14.44S401.17,303.07,403.62,306.75Z" style="fill:#FFED00;stroke:#263238;stroke-linecap:round;stroke-linejoin:round;stroke-width:0.75px"></path><path d="M411.61,273.58s-7.68,18.74-4.61,27.95,22.12,16,27.65,4-6.76-28.87-11.37-32.56S413.15,270.51,411.61,273.58Z" style="fill:#FFED00;stroke:#263238;stroke-linecap:round;stroke-linejoin:round;stroke-width:0.75px"></path><path d="M456.46,281.56s-13.21,12-14.75,24,7.38,16.28,16.59,14.75,13.82-24.88,11.06-35.63S456.46,281.56,456.46,281.56Z" style="fill:#FFED00;stroke:#263238;stroke-linecap:round;stroke-linejoin:round;stroke-width:0.75px"></path><path d="M458.92,347.91s-14.75.62-15.36,7.68,6.45,8.61,13.51,2.46S465.06,348.22,458.92,347.91Z" style="fill:#FFED00;stroke:#263238;stroke-linecap:round;stroke-linejoin:round;stroke-width:0.75px"></path><path d="M443.8,357.28S455.42,352,460.65,351" style="fill:none;stroke:#263238;stroke-miterlimit:10;stroke-width:0.75px"></path><path d="M462.2,394.14s-10.83-10-16.27-5.47-1.55,10.63,7.78,11.31S466.32,398.72,462.2,394.14Z" style="fill:#FFED00;stroke:#263238;stroke-linecap:round;stroke-linejoin:round;stroke-width:0.75px"></path><path d="M444.91,390s12,4.49,16.3,7.55" style="fill:none;stroke:#263238;stroke-miterlimit:10;stroke-width:0.75px"></path><path d="M405.07,391.19s14.93-13.82,22.44-7.55,2.14,14.67-10.74,15.6S399.4,397.5,405.07,391.19Z" style="fill:#FFED00;stroke:#263238;stroke-linecap:round;stroke-linejoin:round;stroke-width:0.75px"></path><path d="M428.92,385.51s-16.5,6.2-22.48,10.42" style="fill:none;stroke:#263238;stroke-miterlimit:10;stroke-width:0.75px"></path><path d="M422.36,362.66s-1.53,7.37-7.06,10.14-15.36-3.08-10.14-12S419.6,359,422.36,362.66Z" style="fill:#FFED00;stroke:#263238;stroke-linecap:round;stroke-linejoin:round;stroke-width:0.75px"></path><path d="M409.46,339.62s-2.76-6.14-13.52-2.15-15.05,10.14-8.29,12.29S409.46,339.62,409.46,339.62Z" style="fill:#FFED00;stroke:#263238;stroke-linecap:round;stroke-linejoin:round;stroke-width:0.75px"></path><path d="M407.4,339.34s-11.39,1.23-17.54,6.47" style="fill:none;stroke:#263238;stroke-miterlimit:10;stroke-width:0.75px"></path><path d="M440.18,265.9s1.84,4.3,5.53,3.38,4.6-6.45,10.44-4.92,10.75,8.3,10.75,5.22-7.37-11.05-15.66-11.05S440.48,261.9,440.18,265.9Z" style="fill:#FFED00;stroke:#263238;stroke-linecap:round;stroke-linejoin:round;stroke-width:0.75px"></path><path d="M409.46,339.62s13.23-2.54,18.73,12.15a40.4,40.4,0,0,1,1.39,4.49" style="fill:none;stroke:#263238;stroke-miterlimit:10;stroke-width:0.75px"></path><path d="M464.66,325.39s2.77-6.14,13.52-2.15,15.05,10.14,8.29,12.29S464.66,325.39,464.66,325.39Z" style="fill:#FFED00;stroke:#263238;stroke-linecap:round;stroke-linejoin:round;stroke-width:0.75px"></path><path d="M467.12,325.8s11.08-.62,16.31,5.85" style="fill:none;stroke:#263238;stroke-miterlimit:10;stroke-width:0.75px"></path><path d="M464.66,325.39a17,17,0,0,0-9.15,1.25" style="fill:none;stroke:#263238;stroke-miterlimit:10;stroke-width:0.75px"></path><path d="M416.51,314.37c-6.48-6.62-12.89-7.62-12.89-7.62s-9.46-2.5-13.15.89" style="fill:none;stroke:#263238;stroke-miterlimit:10;stroke-width:0.75px"></path><line x1="417.83" y1="280.34" x2="417.25" y2="277.78" style="fill:none;stroke:#263238;stroke-miterlimit:10;stroke-width:0.75px"></line><path d="M432.78,416.15s1.38-52.91,0-69S425,312.3,425,312.3l-6.54-29.24" style="fill:none;stroke:#263238;stroke-miterlimit:10;stroke-width:0.75px"></path><line x1="460.09" y1="291.7" x2="461.27" y2="289.17" style="fill:none;stroke:#263238;stroke-miterlimit:10;stroke-width:0.75px"></line><path d="M436,416.09s.46-48.26,2.29-62,9.18-35.34,9.18-35.34l11.27-24.14" style="fill:none;stroke:#263238;stroke-miterlimit:10;stroke-width:0.75px"></path><path d="M443.8,357.28s-3.21,27.66-5.05,58.87" style="fill:none;stroke:#263238;stroke-miterlimit:10;stroke-width:0.75px"></path><path d="M428.19,416.09s.92-44.12-.91-50.09-4.92-3.34-4.92-3.34-8.49,1-11.57,5.92" style="fill:none;stroke:#263238;stroke-miterlimit:10;stroke-width:0.75px"></path><path d="M430.3,359.7c2.4,13.46.19,56.43.19,56.43" style="fill:none;stroke:#263238;stroke-miterlimit:10;stroke-width:0.75px"></path><path d="M452.9,328.08a19.14,19.14,0,0,0-7,9.46c-5.51,14.69-4.88,78.61-4.88,78.61" style="fill:none;stroke:#263238;stroke-miterlimit:10;stroke-width:0.75px"></path><path d="M418.11,316.12a43.46,43.46,0,0,1,7.79,14.08c7.34,21.11,10.1,75.79,8.72,85.89" style="fill:none;stroke:#263238;stroke-miterlimit:10;stroke-width:0.75px"></path><path d="M436.76,335.88c-.45,26.65-.76,80.21-.76,80.21" style="fill:none;stroke:#263238;stroke-miterlimit:10;stroke-width:0.75px"></path><path d="M436.82,332.57c.3-17.62.66-34.87,1-44.14.92-23.87,2.35-22.53,2.35-22.53s1.7-5.36,11.24-4.75" style="fill:none;stroke:#263238;stroke-miterlimit:10;stroke-width:0.75px"></path><path d="M425.06,352.69s-7.68-6.85-4.6-10.22,22.11-5.83,27.64-1.46-6.76,10.56-11.36,11.9S426.6,353.81,425.06,352.69Z" style="fill:#FFED00;stroke:#263238;stroke-linecap:round;stroke-linejoin:round;stroke-width:0.75px"></path><path d="M432.15,347.08a14.53,14.53,0,0,0-.17,2.05" style="fill:none;stroke:#263238;stroke-miterlimit:10;stroke-width:0.75px"></path><path d="M434.8,339.09a34.24,34.24,0,0,0-2,5.08" style="fill:none;stroke:#263238;stroke-miterlimit:10;stroke-width:0.75px"></path><path d="M425.06,397.47s-7.68-6.85-4.6-10.22,22.11-5.84,27.64-1.46-6.76,10.55-11.36,11.9S426.6,398.59,425.06,397.47Z" style="fill:#FFED00;stroke:#263238;stroke-linecap:round;stroke-linejoin:round;stroke-width:0.75px"></path><path d="M434.8,383.86s-2.82,5.63-2.82,10" style="fill:none;stroke:#263238;stroke-miterlimit:10;stroke-width:0.75px"></path><path d="M430.78,378.53s-5.21-4.65-3.13-6.94,15-4,18.77-1-4.59,7.17-7.71,8.08S431.82,379.29,430.78,378.53Z" style="fill:#FFED00;stroke:#263238;stroke-linecap:round;stroke-linejoin:round;stroke-width:0.75px"></path><path d="M437.39,369.29s-1.91,3.82-1.91,6.82" style="fill:none;stroke:#263238;stroke-miterlimit:10;stroke-width:0.75px"></path><rect x="423.57" y="408.47" width="20.79" height="46.1" style="fill:#263238;stroke:#263238;stroke-linecap:round;stroke-linejoin:round;stroke-width:0.75px"></rect></g><g id="freepik--Shapes--inject-211"><polyline points="59.77 160.53 35.69 160.53 35.69 84.99 111.22 84.99 111.22 160.53 64.21 160.53" style="fill:none;stroke:#263238;stroke-miterlimit:10;stroke-width:0.75px"></polyline><rect x="21.6" y="172.69" width="26.25" height="26.25" style="fill:none;stroke:#263238;stroke-miterlimit:10;stroke-width:0.75px"></rect><polyline points="76.66 204.51 76.66 181.02 156.03 181.02 156.03 260.39 76.66 260.39 76.66 212.26" style="fill:none;stroke:#263238;stroke-miterlimit:10;stroke-width:0.75px"></polyline><polyline points="43.15 291.76 10.72 291.76 10.72 234.15 68.33 234.15 68.33 291.76 48.69 291.76" style="fill:none;stroke:#263238;stroke-miterlimit:10;stroke-width:0.75px"></polyline><rect x="162.44" y="237.35" width="55.05" height="55.05" style="fill:none;stroke:#263238;stroke-miterlimit:10;stroke-width:0.75px"></rect></g><g id="freepik--Calendar--inject-211"><path d="M387.77,236.87H368.2V162h12.47v2.57a1.69,1.69,0,0,0,3.37,0V162h14.41v2.57a1.68,1.68,0,0,0,3.35,0V162h14.41v2.57a1.68,1.68,0,0,0,3.36,0V162H434v2.57a1.68,1.68,0,0,0,3.35,0V162h14.41v2.57a1.69,1.69,0,0,0,3.37,0V162h12.47v16" style="fill:none;stroke:#263238;stroke-miterlimit:10;stroke-width:0.75px"></path><polyline points="467.58 185.3 467.58 236.87 396.63 236.87" style="fill:none;stroke:#263238;stroke-miterlimit:10;stroke-width:0.75px"></polyline><rect x="379.24" y="182.45" width="11.04" height="11.04" style="fill:none;stroke:#263238;stroke-miterlimit:10;stroke-width:0.75px"></rect><rect x="395.81" y="182.45" width="11.04" height="11.04" style="fill:none;stroke:#263238;stroke-miterlimit:10;stroke-width:0.75px"></rect><rect x="412.37" y="182.45" width="11.04" height="11.04" style="fill:none;stroke:#263238;stroke-miterlimit:10;stroke-width:0.75px"></rect><rect x="428.93" y="182.45" width="11.04" height="11.04" style="fill:none;stroke:#263238;stroke-miterlimit:10;stroke-width:0.75px"></rect><rect x="445.49" y="182.45" width="11.04" height="11.04" style="fill:none;stroke:#263238;stroke-miterlimit:10;stroke-width:0.75px"></rect><rect x="379.24" y="200.59" width="11.04" height="11.04" style="fill:none;stroke:#263238;stroke-miterlimit:10;stroke-width:0.75px"></rect><rect x="395.81" y="200.59" width="11.04" height="11.04" style="fill:none;stroke:#263238;stroke-miterlimit:10;stroke-width:0.75px"></rect><rect x="412.37" y="200.59" width="11.04" height="11.04" style="fill:none;stroke:#263238;stroke-miterlimit:10;stroke-width:0.75px"></rect><rect x="428.93" y="200.59" width="11.04" height="11.04" style="fill:none;stroke:#263238;stroke-miterlimit:10;stroke-width:0.75px"></rect><rect x="445.49" y="200.59" width="11.04" height="11.04" style="fill:none;stroke:#263238;stroke-miterlimit:10;stroke-width:0.75px"></rect><rect x="379.24" y="218.73" width="11.04" height="11.04" style="fill:none;stroke:#263238;stroke-miterlimit:10;stroke-width:0.75px"></rect><rect x="395.81" y="218.73" width="11.04" height="11.04" style="fill:none;stroke:#263238;stroke-miterlimit:10;stroke-width:0.75px"></rect><rect x="412.37" y="218.73" width="11.04" height="11.04" style="fill:none;stroke:#263238;stroke-miterlimit:10;stroke-width:0.75px"></rect><rect x="428.93" y="218.73" width="11.04" height="11.04" style="fill:none;stroke:#263238;stroke-miterlimit:10;stroke-width:0.75px"></rect><rect x="445.49" y="218.73" width="11.04" height="11.04" style="fill:none;stroke:#263238;stroke-miterlimit:10;stroke-width:0.75px"></rect><path d="M384,154.91v9.61a1.69,1.69,0,0,1-3.37,0v-9.61a1.69,1.69,0,0,1,3.37,0Z" style="fill:none;stroke:#263238;stroke-miterlimit:10;stroke-width:0.75px"></path><path d="M401.8,154.91v9.61a1.68,1.68,0,0,1-3.35,0v-9.61a1.68,1.68,0,1,1,3.35,0Z" style="fill:none;stroke:#263238;stroke-miterlimit:10;stroke-width:0.75px"></path><path d="M419.57,154.91v9.61a1.68,1.68,0,0,1-3.36,0v-9.61a1.68,1.68,0,0,1,3.36,0Z" style="fill:none;stroke:#263238;stroke-miterlimit:10;stroke-width:0.75px"></path><path d="M437.33,154.91v9.61a1.68,1.68,0,0,1-3.35,0v-9.61a1.68,1.68,0,1,1,3.35,0Z" style="fill:none;stroke:#263238;stroke-miterlimit:10;stroke-width:0.75px"></path><path d="M455.11,154.91v9.61a1.69,1.69,0,0,1-3.37,0v-9.61a1.69,1.69,0,0,1,3.37,0Z" style="fill:none;stroke:#263238;stroke-miterlimit:10;stroke-width:0.75px"></path></g><g id="freepik--Gears--inject-211"><path d="M329.17,73.73,324.9,69l-7.67,5.57L320.36,80a33.52,33.52,0,0,0-6.1,8.17L308,86.83l-2.93,9,5.71,2.55a33.68,33.68,0,0,0-.12,10.19l-5.84,2.61,2.93,9,6.12-1.29a33.66,33.66,0,0,0,5.89,8.31l-3.19,5.55,7.67,5.57,4.19-4.65a33.42,33.42,0,0,0,9.65,3.26l.67,6.37h9.48l.66-6.23a33.1,33.1,0,0,0,9.74-3l4.27,4.75,7.67-5.57-3.13-5.43a33.52,33.52,0,0,0,6.1-8.17l6.26,1.33,2.92-9L377,109.4a33.68,33.68,0,0,0,.12-10.19l5.84-2.6-2.93-9-6.12,1.3A33.66,33.66,0,0,0,368,80.58L371.23,75l-7.67-5.57-4.19,4.65a33.44,33.44,0,0,0-9.65-3.27l-.67-6.36h-9.48l-.66,6.22a33.67,33.67,0,0,0-4.84,1.1m25.68,42.78A19.11,19.11,0,1,1,363,103.9a19.4,19.4,0,0,1-.74,5.31" style="fill:none;stroke:#263238;stroke-miterlimit:10;stroke-width:0.75px"></path><path d="M423.29,73.63a21,21,0,0,0-.21-3L426.8,69l-1.86-5.73-3.9.82a21.69,21.69,0,0,0-3.75-5.29l2-3.53-4.88-3.54-2.66,3a21.17,21.17,0,0,0-6.15-2.08l-.43-4.05h-6l-.42,4a21,21,0,0,0-6.19,1.93l-2.73-3L385,55l2,3.45a21.78,21.78,0,0,0-3.88,5.2l-4-.84-1.86,5.74,3.64,1.62a21.28,21.28,0,0,0-.29,3.5,21,21,0,0,0,.21,3l-3.72,1.65L378.92,84l3.9-.82a21.69,21.69,0,0,0,3.75,5.29l-2,3.53,4.88,3.54,2.67-3a21.11,21.11,0,0,0,6.14,2.08l.43,4h6l.42-4a21.33,21.33,0,0,0,6.2-1.93l2.72,3,4.88-3.54-2-3.46a21.58,21.58,0,0,0,3.88-5.2l4,.85,1.86-5.74L423,77.14A21.32,21.32,0,0,0,423.29,73.63ZM395,63.66a12.12,12.12,0,1,1-3.92,4.53" style="fill:none;stroke:#263238;stroke-miterlimit:10;stroke-width:0.75px"></path></g><g id="freepik--character-1--inject-211"><rect x="71.69" y="320.45" width="138.75" height="4.71" style="fill:#263238;stroke:#263238;stroke-miterlimit:10"></rect><rect x="75.3" y="323.68" width="2.89" height="130.88" style="fill:#263238;stroke:#263238;stroke-miterlimit:10"></rect><line x1="108.55" y1="352.11" x2="202.51" y2="414.27" style="fill:none;stroke:#263238;stroke-miterlimit:10;stroke-width:3px"></line><line x1="202.51" y1="352.11" x2="108.55" y2="414.27" style="fill:none;stroke:#263238;stroke-miterlimit:10;stroke-width:3px"></line><rect x="106.62" y="323.68" width="2.89" height="130.88" style="fill:#263238;stroke:#263238;stroke-miterlimit:10"></rect><rect x="170.22" y="323.68" width="2.89" height="130.88" style="fill:#263238;stroke:#263238;stroke-miterlimit:10"></rect><rect x="201.55" y="323.68" width="2.89" height="130.88" style="fill:#263238;stroke:#263238;stroke-miterlimit:10"></rect><line x1="76.74" y1="352.11" x2="170.71" y2="414.27" style="fill:none;stroke:#263238;stroke-miterlimit:10;stroke-width:3px"></line><line x1="170.71" y1="352.11" x2="76.74" y2="414.27" style="fill:none;stroke:#263238;stroke-miterlimit:10;stroke-width:3px"></line><line x1="204.45" y1="414.27" x2="109.52" y2="414.27" style="fill:none;stroke:#263238;stroke-miterlimit:10;stroke-width:3px"></line><line x1="171.67" y1="414.27" x2="76.74" y2="414.27" style="fill:none;stroke:#263238;stroke-miterlimit:10;stroke-width:3px"></line><path d="M110.61,237s2.4,17,2.4,18.09-2,10-1.09,16.78,4.58,34.91,4.58,36.21-.73,3.32-2.31,7.28-1.45,7.9-.92,9.35,2.76,1.45,5.14,0,4.74-3.42,5-7.64-.66-8.3-.79-10.28,2.37-28.71,3.56-34.25,1.06-19.77,1.06-19.77L129,237.6Z" style="fill:#fff;stroke:#263238;stroke-miterlimit:10"></path><path d="M118.41,324.69c2.37-1.45,4.74-3.42,5-7.64a33.24,33.24,0,0,0-.19-5.54c-.58,1.68-1.58,4.38-2.82,4.69-1.62.4-6.21-.86-6.21-.86-1.58,4-1.45,7.9-.92,9.35S116,326.14,118.41,324.69Z" style="fill:#263238;stroke:#263238;stroke-miterlimit:10"></path><path d="M166,230.24s4.84,16.11,4.84,16.72,6,53.53,7.59,56.35,8.46,13.89,10.27,14.7,3.83,2,2.22,2.82-7.46,1.41-9.67,1.21-8.26-5.84-10.47-6.65-5.64-1.41-5-4,3-6,3.22-8.86-5.78-24.13-8.19-33.19-3.83-18.53-3.83-18.53l-7.45-13.29Z" style="fill:#fff;stroke:#263238;stroke-miterlimit:10"></path><path d="M188.67,318c-.81-.36-2.61-2.75-4.5-5.54l-3.35,2.12s-6.85-3-9.47-6.25c-1.24-1.53-2.25-2.68-3-3.49-.81,2.24-2.23,4.59-2.67,6.51-.6,2.62,2.82,3.23,5,4s8.25,6.45,10.47,6.65,8.05-.4,9.67-1.21S190.48,318.82,188.67,318Z" style="fill:#263238;stroke:#263238;stroke-miterlimit:10"></path><path d="M186.09,128.61l13,12.86L233.88,139l.35,4.86S197.74,155,196.35,155s-19.47-18.6-19.47-18.6Z" style="fill:#fff;stroke:#263238;stroke-miterlimit:10"></path><path d="M119.7,160.76s-10.61,10.19-15.62,21.3a41.85,41.85,0,0,0-2.18,28.12c1.74,7,6.75,29.85,6.75,29.85s26.37,1.09,38.14-.65a77.24,77.24,0,0,0,20.93-6.32s-7.41-30.29-9.81-38.36-4.58-14.38-4.58-14.38l.87-11.12Z" style="fill:#263238;stroke:#263238;stroke-miterlimit:10"></path><path d="M152.72,102.54l-4.17,9.56s-9.38,4.69-13.2,6.78a15.86,15.86,0,0,0-7.65,8.86c-1.39,3.83-4.52,24.51-4.69,25s-3.48,5.91-3.31,8,7.83,12.34,18.25,13.38,14.38-1.8,14.73-2.32,6.82-9.49,8.39-10.19a99.84,99.84,0,0,0,9.55-6.25c1.57-1.22,6.26-16,6.26-16l9.21-10.78s-1.91-3.3-8.69-8.51S152.72,102.54,152.72,102.54Z" style="fill:#FFED00;stroke:#263238;stroke-miterlimit:10"></path><path d="M148.55,112.1l-4.62,2.33c1.27,1.86,5.15,7.9,6,13.83,1.05,7.13,1.05,8.52,1.05,8.52l17.2-.17a56.21,56.21,0,0,0-.82-23.82c-7.13-5.07-14.65-10.25-14.65-10.25Z" style="fill:#fff;stroke:#263238;stroke-miterlimit:10"></path><path d="M178.2,80.86A15.47,15.47,0,0,0,169,77.41c-4.27,0-15.05,3-19.32,6.59s-6,11-6.66,16.65-1.42,6.6,1,9.27,6,3.61,7.13,3.92,1.11-3,1.9-4.08,3.33-4.4,3.33-4.4,4-3.61,6.17-3.61,13.15-2.67,14.42-3.61a1.77,1.77,0,0,1,2.37.31l.95,5.81s4.28.47,6-.63,3.17-5.34,2.85-7.85C188.25,88.75,184.22,80.23,178.2,80.86Z" style="fill:#263238;stroke:#263238;stroke-miterlimit:10"></path><path d="M153.59,111.93c.7,2.95,3.48,8.86,3.83,10.42s2.78,3.31,5.21,2.79,9.73-3.65,11.82-6.09,3.3-7,3.65-8.69,3.47-5.56,3.82-7.64-1.74-10.78-1.74-10.78A86.12,86.12,0,0,1,168,97.85a17.55,17.55,0,0,1-9.73.7s0,1.73-1,1.56,0-1-2.08-1.91-4,1.39-4.17,3.65,1,4.86,2.08,5.56" style="fill:#fff;stroke:#263238;stroke-miterlimit:10"></path><path d="M167.76,107.93c-.39.93-1.17,1.49-1.74,1.25s-.73-1.19-.35-2.12,1.17-1.49,1.74-1.25S168.14,107,167.76,107.93Z" style="fill:#263238"></path><path d="M176.19,109.49c-.39.94-1.17,1.5-1.75,1.26s-.73-1.19-.34-2.12,1.16-1.49,1.74-1.25S176.57,108.56,176.19,109.49Z" style="fill:#263238"></path><path d="M164.54,103.41a6,6,0,0,1,6.08.35" style="fill:none;stroke:#263238;stroke-miterlimit:10"></path><path d="M175.66,105.15a2.75,2.75,0,0,1,3.65,1.56" style="fill:none;stroke:#263238;stroke-miterlimit:10"></path><path d="M172.88,109.32a11.94,11.94,0,0,0-1.39,3c-.17,1,.87,3-.87,3.64s-3.82-.52-3.82-1" style="fill:none;stroke:#263238;stroke-miterlimit:10"></path><path d="M167,118.53a5.65,5.65,0,0,1-4.52-4.69" style="fill:none;stroke:#263238;stroke-miterlimit:10"></path><rect x="189.02" y="73.46" width="72.29" height="74.41" rx="8.65" style="fill:#b0b0b0;stroke:#263238;stroke-miterlimit:10"></rect><rect x="205.93" y="73.46" width="72.29" height="74.41" rx="8.65" style="fill:#fff;stroke:#263238;stroke-miterlimit:10"></rect><path d="M131,141.82s22.07,28.5,24.16,29,48.14-14.42,49-14.77,12.51-4.52,13-4.87,6.78-2.08,7.3-2.6-2.09-.87-2.09-.87H208.16s3.48-2.78,4.7-3.83.86-4-.35-3.12-4.69,3.47-4.69,3.47-5.57,1.57-6.43,2.78a75.34,75.34,0,0,0-3.31,6.78l-36.14,3-16.51-21.55Z" style="fill:#fff;stroke:#263238;stroke-miterlimit:10"></path><path d="M131.35,122s-4,.69-3.82,9a65.72,65.72,0,0,0,1.56,13.73l19.12-7.3s-3.13-8.68-5.22-10.94" style="fill:#FFED00;stroke:#263238;stroke-miterlimit:10"></path><path d="M229.06,142V78.2h16.63a45.76,45.76,0,0,1,7.76.63,17.8,17.8,0,0,1,6.5,2.4,12.06,12.06,0,0,1,4.46,5A19.74,19.74,0,0,1,266,94.9a16.43,16.43,0,0,1-1.14,6.51,10.24,10.24,0,0,1-3.23,4.21,11.71,11.71,0,0,1-5,2.13,12.7,12.7,0,0,1,6.23,2.41,11.83,11.83,0,0,1,3.82,5.16,20.84,20.84,0,0,1,1.3,7.8,25,25,0,0,1-1.3,8.55,14.69,14.69,0,0,1-3.74,5.88,15.2,15.2,0,0,1-6,3.38,27.9,27.9,0,0,1-8.24,1.11Zm14.11-38.31h2.75a9.78,9.78,0,0,0,4.89-1,5,5,0,0,0,2.25-2.88,15.56,15.56,0,0,0,.59-4.57,8.81,8.81,0,0,0-.91-4.22,5.84,5.84,0,0,0-2.68-2.56,10.05,10.05,0,0,0-4.45-.87h-2.44Zm0,28.46h3q4.65,0,6.43-2.37c1.18-1.57,1.77-3.89,1.77-6.94a17.16,17.16,0,0,0-.79-5.75A5.61,5.61,0,0,0,251,114a10.24,10.24,0,0,0-4.89-1h-2.91Z" style="fill:#FFED00;stroke:#263238;stroke-miterlimit:10"></path></g><g id="freepik--Blocks--inject-211"><rect x="198.71" y="380.16" width="72.3" height="74.41" rx="8.65" style="fill:#b0b0b0;stroke:#263238;stroke-miterlimit:10"></rect><rect x="215.62" y="380.16" width="72.3" height="74.41" rx="8.65" style="fill:#fff;stroke:#263238;stroke-miterlimit:10"></rect><rect x="198.71" y="306.17" width="72.3" height="74.41" rx="8.65" style="fill:#b0b0b0;stroke:#263238;stroke-miterlimit:10"></rect><rect x="215.62" y="306.17" width="72.3" height="74.41" rx="8.65" style="fill:#263238"></rect><rect x="198.71" y="232.19" width="72.3" height="74.41" rx="8.65" style="fill:#b0b0b0;stroke:#263238;stroke-miterlimit:10"></rect><rect x="215.62" y="232.19" width="72.3" height="74.41" rx="8.65" style="fill:#FFED00;stroke:#263238;stroke-miterlimit:10"></rect><path d="M232.7,450.15V386.3h16.16q8.34,0,13,2.09a12.29,12.29,0,0,1,6.54,6.55,29.8,29.8,0,0,1,1.89,11.54v23.17a30.73,30.73,0,0,1-1.89,11.71,12.42,12.42,0,0,1-6.5,6.66q-4.61,2.13-12.89,2.13Zm14.11-9.78H249a8.65,8.65,0,0,0,4.65-.94,4.17,4.17,0,0,0,1.78-2.84,27,27,0,0,0,.35-4.73V404a19.42,19.42,0,0,0-.43-4.57,3.77,3.77,0,0,0-1.85-2.52,9.86,9.86,0,0,0-4.58-.79h-2.12Z" style="fill:#263238"></path><path d="M232.05,302.71l12.06-63.84h16.08l11.9,63.84h-13L257,289.24h-9.38l-2.21,13.47Zm16.79-21.91h6.78l-3.39-24.91Z" style="fill:#263238"></path><path d="M235.13,375.27V311.43h9.93l13.08,30.74V311.43h11.67v63.84h-9.54l-13.09-33.1v33.1Z" style="fill:#FFED00;stroke:#263238;stroke-miterlimit:10"></path></g><g id="freepik--character-2--inject-211"><path d="M311.37,261.94s-16.8-30.85-17.49-31.54-4.69-1.24-5.37-1.11-7.86,1.11-7.86,1.11-8.95-1-9.36.13,5.92,3.86,7.3,4.41,11.84,2.21,11.84,2.21l10.34,32.64Z" style="fill:#d6d6d6;stroke:#263238;stroke-miterlimit:10"></path><path d="M325.48,310.07l.67,22.34s1.14,71.07,4,77.79,7.39,28.22,7.39,28.22-1.68,0-1.35,2.35a41.22,41.22,0,0,1,.34,5s-3.19,3.36-5.38,5.71-7.22,3.36-5.54,5.21,6.38,2.18,10.92,2,8.57-3.87,10.25-4.54,6.55-1.17,7.22-2.69-1-7.89-1-7.89-.17-4.87-.17-5.71-1-1.85-1.17-3-2.35-33.93-2.86-36.62.86-42.86.86-42.86,9.05,45.38,10.57,50.25,10.58,33.6,10.58,33.6-1.35,2.86-.84,3.86,3.19,5.38,3.19,5.38a83.59,83.59,0,0,1,3.53,8.06c1,3,4.7,10.08,7.73,7.9a10.34,10.34,0,0,0,3.69-9.58c-.67-2.68-4.87-9.91-5-10.41s-.84-4.71-1.17-7.73-.51-1.51-.84-4.37-2.86-38.13-2.86-38.13l-2.48-61.49a36.09,36.09,0,0,0,.33-12.1,81.35,81.35,0,0,0-2.35-10.24Z" style="fill:#263238;stroke:#263238;stroke-miterlimit:10"></path><path d="M351,239.21s-16.25-1.1-18.59-.69-6.2,4.41-6.2,4.41L315.78,264.7l-3.58-3.59-11.71,11.71a22.54,22.54,0,0,0,4.59,8.38c3.31,3.58,6.2,6.74,7.16,6.19s12.81-9.65,12.81-9.65l0,25.94s-2.48,5.78-1.79,6.89a7.19,7.19,0,0,0,2.89,1.93s17.77,4.68,29.2,3.71,20.25-3.44,20.67-4.4-.83-7.3-.83-7.72,4.82-31.4,4.82-31.4c.32.32,8.09-16.84,2.76-25.21-2.92-4.57-14.74-5.65-14.74-5.65Z" style="fill:#FFED00;stroke:#263238;stroke-miterlimit:10"></path><polygon points="344.37 246.7 344.98 254.37 335.69 297.83 340.42 306.99 348.79 297.2 347.84 255.06 353.84 249.22 348.63 242.91 344.37 246.7" style="fill:#263238;stroke:#263238;stroke-miterlimit:10"></polygon><line x1="315.78" y1="264.7" x2="321.8" y2="271.79" style="fill:none;stroke:#263238;stroke-miterlimit:10"></line><path d="M320.38,268s3.31,3.79,3.31,4.42" style="fill:none;stroke:#263238;stroke-miterlimit:10"></path><polygon points="342.23 243.34 340.57 249.54 345.67 248.03 342.23 243.34" style="fill:#FFED00;stroke:#263238;stroke-miterlimit:10"></polygon><polygon points="350.77 247.2 355.18 256.57 367.99 241.83 366.75 237.28 364.68 236.18 348.29 237.84 342.23 243.34 347.6 250.09 350.77 247.2" style="fill:#FFED00;stroke:#263238;stroke-miterlimit:10"></polygon><path d="M353.8,194s-4.82,3-6.89,6.06-1.93,6.48-2.2,8-3.72,8.95-4,11.16.83,11.57,2.21,13.77,5.51,2.62,5.51,2.62-1.38,14.46-.83,14.46,15.29-9.64,16.25-11.15,2.21-6.75,2.48-7.17,5.23-2.56,7.3-4.54a7.2,7.2,0,0,0,2.21-6.48s3.44-7.43,1.79-15-5.37-9.64-11.57-11.85S357,193.2,353.8,194Z" style="fill:#d6d6d6;stroke:#263238;stroke-miterlimit:10"></path><path d="M377.63,205.74c-1.65-7.58-5.37-9.64-11.57-11.85s-9.09-.69-12.26.14c0,0-.82.52-1.93,1.33,1.45-.13,6.54-.4,10.74,1.7,5,2.48,7.86,8.4,6.62,9.78s-2.76,2.89-2.07,3.86a20.82,20.82,0,0,1,1.93,5.92c-.14.41-2.76,4.41-2.34,5s2.34,1.38,2.75.69,1.24-2.48,3.31-2.48a4.43,4.43,0,0,1,3,1S379.28,213.32,377.63,205.74Z" style="fill:#263238;stroke:#263238;stroke-miterlimit:10"></path><path d="M349.25,210.27c-.32,1.08-1,1.81-1.61,1.64s-.76-1.18-.43-2.26,1.05-1.81,1.61-1.64S349.58,209.19,349.25,210.27Z" style="fill:#263238"></path><path d="M358,213.49c-.33,1.07-1.05,1.81-1.61,1.64s-.76-1.18-.44-2.26,1.05-1.81,1.62-1.64S358.31,212.41,358,213.49Z" style="fill:#263238"></path><path d="M346.77,205.05a4.34,4.34,0,0,1,5,1.65" style="fill:none;stroke:#263238;stroke-miterlimit:10"></path><path d="M355.87,208.91s4-.28,5.51,3.3" style="fill:none;stroke:#263238;stroke-miterlimit:10"></path><path d="M351.73,208.49a14.45,14.45,0,0,1,0,2.48c-.14.42-6.75,6.34-6.33,7s3.85,1.38,4.27,1.24" style="fill:none;stroke:#263238;stroke-miterlimit:10"></path><path d="M346,223.1s5.23,2.48,7.57,2.2a6.13,6.13,0,0,0,3.72-1.93" style="fill:none;stroke:#263238;stroke-miterlimit:10"></path><path d="M348.43,235.63a14.86,14.86,0,0,0,3.16-.27c.56-.28,4.55-1.52,4.55-1.52s-3.86,4.27-5.1,5.37a14,14,0,0,1-3.16,1.93Z" style="fill:#263238;stroke:#263238;stroke-miterlimit:10"></path><rect x="236.31" y="157.49" width="72.3" height="74.41" rx="8.65" transform="translate(13.05 -17.08) rotate(3.68)" style="fill:#b0b0b0;stroke:#263238;stroke-miterlimit:10"></rect><rect x="253.19" y="158.58" width="72.29" height="74.41" rx="8.65" transform="translate(13.16 -18.16) rotate(3.68)" style="fill:#263238"></rect><path d="M343.42,253.66l-22.08-23.81a45.86,45.86,0,0,0-3.41-4.76c-.81-.71-3.91-.91-4.55-.53s-5.54-.65-6.4-.79a1.24,1.24,0,0,0-1.06,2.12A3.94,3.94,0,0,0,309,227.5a17.78,17.78,0,0,1,3.28.45s-4.84,2.87-5.75,3.29-10.86,1.88-11.68,2.85,1.21,1.48,2.05,1.48a10.28,10.28,0,0,1,2.94.93c.45.2,3.29,2.26,5.9,2s11.42-1,11.42-1l18.56,25.35Z" style="fill:#d6d6d6;stroke:#263238;stroke-miterlimit:10"></path><path d="M373.5,245.14a11.11,11.11,0,0,0-4.14,3.85c-1.24,2.34-16.72,11.74-16.72,11.74L345,254.36l-9,9.78s11.76,14.93,14.24,15.89,5,1,5.92.28,25.57-15.61,25.57-15.61" style="fill:#FFED00;stroke:#263238;stroke-miterlimit:10"></path><path d="M352.64,260.73s4.21,3.16,4.9,3.71" style="fill:none;stroke:#263238;stroke-miterlimit:10"></path><path d="M356.5,261.77s5.38,3,5.24,4.54" style="fill:none;stroke:#263238;stroke-miterlimit:10"></path><polygon points="343.19 252.16 332.86 262.22 337.82 267.73 348.84 256.16 343.19 252.16" style="fill:#FFED00;stroke:#263238;stroke-miterlimit:10"></polygon><path d="M310.55,259.46s-13.5,10.47-13.37,11.3,3.86,7.57,3.86,7.57,13.22-12.67,13.64-13.22,1.1-.69.14-1.93S313.44,257.81,310.55,259.46Z" style="fill:#FFED00;stroke:#263238;stroke-miterlimit:10"></path><line x1="325.01" y1="281.09" x2="325.96" y2="255.86" style="fill:#fff;stroke:#263238;stroke-miterlimit:10"></line><path d="M266.07,225.75,269.69,162l17.55,1a39.09,39.09,0,0,1,11.09,2.05,13.57,13.57,0,0,1,7.07,5.49q2.43,3.81,2.05,10.5a34.81,34.81,0,0,1-1,7,13.15,13.15,0,0,1-2.62,5.18,12.9,12.9,0,0,1-5.05,3.46l7,31.35-14.56-.83-5.38-29-4-.23-1.62,28.56Zm16.17-35.87,3.93.23a8.65,8.65,0,0,0,4.7-.8,5.64,5.64,0,0,0,2.5-2.94,15.24,15.24,0,0,0,.94-4.8,11.55,11.55,0,0,0-1.13-6.46q-1.37-2.37-5.38-2.59l-4.56-.26Z" style="fill:#fff;stroke:#263238;stroke-miterlimit:10"></path></g><g id="freepik--Lamp--inject-211"><path d="M72.34,64.85A6.83,6.83,0,1,1,65.51,58,6.82,6.82,0,0,1,72.34,64.85Z" style="fill:#fff;stroke:#263238;stroke-miterlimit:10"></path><polygon points="96.04 65.96 34.99 65.96 59.41 45.39 71.62 45.39 96.04 65.96" style="fill:#263238;stroke:#263238;stroke-miterlimit:10"></polygon><line x1="65.51" y1="45.87" x2="65.51" y2="6.66" style="fill:none;stroke:#263238;stroke-miterlimit:10"></line></g></svg>
