<svg xmlns="http://www.w3.org/2000/svg" version="1.0" width="256.000000pt" height="256.000000pt" viewBox="0 0 256.000000 256.000000" preserveAspectRatio="xMidYMid meet">

<g transform="translate(0.000000,256.000000) scale(0.100000,-0.100000)" fill="#b3b3b3" stroke="none">
<path d="M1124 2550 c-436 -62 -794 -318 -988 -708 -86 -172 -126 -349 -126 -557 0 -340 117 -633 349 -878 379 -398 957 -510 1460 -281 482 220 788 754 732 1277 -34 311 -152 559 -370 778 -187 188 -395 300 -656 354 -93 19 -313 28 -401 15z m380 -116 c33 -8 75 -26 93 -40 40 -30 73 -91 73 -134 l0 -31 -45 7 c-40 5 -45 4 -45 -12 0 -31 14 -43 55 -52 l40 -8 0 -68 c0 -55 4 -70 19 -82 44 -32 136 0 136 48 0 28 29 74 56 89 33 17 54 5 54 -31 0 -50 30 -70 106 -70 36 0 73 -4 83 -10 27 -14 45 -64 32 -88 -20 -37 -155 -50 -168 -16 -4 12 -11 40 -12 57 -2 15 -123 6 -178 -13 -31 -11 -60 -23 -65 -28 -4 -4 4 -37 19 -72 23 -56 27 -84 31 -192 4 -127 5 -128 28 -128 22 0 24 -4 24 -42 0 -26 9 -59 23 -83 20 -36 27 -40 66 -43 33 -2 52 2 72 17 35 26 43 26 61 -1 12 -18 23 -21 67 -19 l53 1 -6 -30 c-3 -16 -9 -44 -12 -61 -5 -23 -1 -36 17 -55 22 -23 22 -26 8 -62 -9 -25 -14 -76 -14 -157 0 -104 -3 -126 -23 -170 -13 -28 -26 -78 -29 -115 -4 -57 -2 -68 16 -87 12 -13 28 -23 36 -23 8 0 35 26 60 58 49 62 115 112 101 76 -21 -55 -121 -197 -196 -277 -106 -113 -215 -194 -344 -257 -680 -330 -1472 47 -1659 788 -18 74 -21 114 -21 272 1 169 3 193 28 285 30 111 96 257 158 353 58 89 94 81 46 -11 -26 -52 -32 -162 -8 -162 8 0 23 17 33 38 9 20 20 37 25 37 4 0 7 -37 7 -83 0 -109 28 -168 100 -210 28 -16 68 -46 90 -67 22 -21 63 -49 90 -62 44 -20 50 -27 53 -57 3 -29 -3 -40 -42 -76 -35 -31 -46 -49 -46 -71 0 -43 32 -88 79 -111 l41 -20 0 214 0 214 -30 -16 c-69 -36 -118 -7 -150 91 -19 57 -27 68 -56 80 -51 21 -51 71 0 124 19 19 39 52 46 73 13 42 40 49 66 18 51 -60 74 -81 91 -81 17 0 18 7 15 68 -3 64 -1 69 33 115 23 31 53 56 83 70 61 28 132 79 132 94 0 21 31 44 51 38 20 -7 89 12 89 24 0 3 -7 17 -16 29 -50 72 -183 68 -214 -8 -15 -36 -46 -46 -94 -30 -50 16 -62 34 -43 63 24 36 84 60 166 65 67 4 80 9 138 49 37 25 72 42 80 39 8 -3 22 -24 30 -46 9 -22 22 -40 29 -40 27 0 73 51 80 88 4 20 9 40 11 45 6 10 123 -1 197 -19z" fill="#b3b3b3"/>
<path d="M1141 1833 c-15 -56 -261 -1201 -261 -1213 0 -7 39 -10 107 -8 l108 3 12 70 c7 39 18 94 24 123 l10 52 140 0 c76 0 139 -1 139 -2 0 -9 42 -216 46 -230 5 -16 19 -18 110 -18 77 0 104 3 104 13 0 6 -60 289 -133 627 l-133 615 -131 3 -132 3 -10 -38z m188 -513 c23 -129 45 -245 48 -257 5 -23 4 -23 -97 -23 -101 0 -102 0 -97 23 3 12 25 131 49 264 23 133 46 239 49 235 4 -4 25 -113 48 -242z" fill="#b3b3b3"/>
<path d="M987 328 c8 -30 23 -49 48 -58 21 -8 55 4 55 20 0 7 -92 60 -105 60 -2 0 -1 -10 2 -22z" fill="#b3b3b3"/>
</g>
</svg>